<svg width="915" height="481" viewBox="0 0 915 481" fill="none" xmlns="http://www.w3.org/2000/svg">
<path d="M37.5108 385.58L1006.72 384.25C1019.7 372.594 1031.88 360.063 1043.16 346.746L1.07556 348.073C12.3547 361.391 24.5281 373.923 37.5108 385.58Z" fill="#2D2D2D" stroke="black"/>
<path d="M386.72 222.947V336.94C386.719 338.392 386.143 339.785 385.118 340.813C384.093 341.84 382.703 342.417 381.254 342.418H212.699C211.249 342.417 209.859 341.84 208.834 340.813C207.809 339.785 207.233 338.392 207.232 336.94V222.947C207.235 221.496 207.813 220.105 208.837 219.079C209.862 218.053 211.25 217.476 212.699 217.475H381.254C382.702 217.476 384.09 218.053 385.115 219.079C386.139 220.105 386.717 221.496 386.72 222.947Z" fill="#696969"/>
<path d="M382.766 224.366V335.534C382.765 336.31 382.456 337.054 381.909 337.603C381.361 338.151 380.619 338.46 379.844 338.462H214.102C213.327 338.46 212.585 338.151 212.037 337.603C211.49 337.054 211.181 336.31 211.18 335.534V224.366C211.18 223.589 211.488 222.843 212.036 222.293C212.583 221.743 213.326 221.433 214.102 221.432H379.844C380.62 221.433 381.363 221.743 381.91 222.293C382.458 222.843 382.766 223.589 382.766 224.366Z" fill="#101010"/>
<path d="M390.245 359.172C389.937 359.56 389.544 359.872 389.098 360.087C388.651 360.301 388.161 360.411 387.666 360.408H207.184C206.69 360.408 206.203 360.297 205.757 360.084C205.312 359.871 204.919 359.561 204.608 359.177C204.298 358.793 204.076 358.344 203.96 357.863C203.844 357.382 203.836 356.881 203.937 356.397L206.739 343.06C206.855 342.517 207.105 342.01 207.466 341.588C207.827 341.166 208.288 340.841 208.807 340.643C209.182 340.495 209.582 340.419 209.985 340.42H384.876C385.279 340.419 385.679 340.495 386.054 340.643C386.573 340.841 387.034 341.166 387.395 341.588C387.756 342.01 388.006 342.517 388.122 343.06L390.924 356.397C391.023 356.881 391.014 357.381 390.897 357.861C390.78 358.341 390.557 358.789 390.245 359.172Z" fill="#696969"/>
<path d="M216.177 346.164H211.914C211.557 346.164 211.266 345.873 211.266 345.515V343.471C211.266 343.112 211.557 342.822 211.914 342.822H216.177C216.535 342.822 216.825 343.112 216.825 343.471V345.515C216.825 345.873 216.535 346.164 216.177 346.164Z" fill="#212121"/>
<path d="M227.295 346.164H223.032C222.674 346.164 222.384 345.873 222.384 345.515V343.471C222.384 343.112 222.674 342.822 223.032 342.822H227.295C227.653 342.822 227.943 343.112 227.943 343.471V345.515C227.943 345.873 227.653 346.164 227.295 346.164Z" fill="#212121"/>
<path d="M238.413 346.164H234.15C233.792 346.164 233.502 345.873 233.502 345.515V343.471C233.502 343.112 233.792 342.822 234.15 342.822H238.413C238.77 342.822 239.06 343.112 239.06 343.471V345.515C239.06 345.873 238.77 346.164 238.413 346.164Z" fill="#212121"/>
<path d="M249.53 346.164H245.267C244.91 346.164 244.62 345.873 244.62 345.515V343.471C244.62 343.112 244.91 342.822 245.267 342.822H249.53C249.888 342.822 250.178 343.112 250.178 343.471V345.515C250.178 345.873 249.888 346.164 249.53 346.164Z" fill="#212121"/>
<path d="M260.648 346.164H256.385C256.027 346.164 255.737 345.873 255.737 345.515V343.471C255.737 343.112 256.027 342.822 256.385 342.822H260.648C261.006 342.822 261.296 343.112 261.296 343.471V345.515C261.296 345.873 261.006 346.164 260.648 346.164Z" fill="#212121"/>
<path d="M271.766 346.164H267.503C267.145 346.164 266.855 345.873 266.855 345.515V343.471C266.855 343.112 267.145 342.822 267.503 342.822H271.766C272.124 342.822 272.414 343.112 272.414 343.471V345.515C272.414 345.873 272.124 346.164 271.766 346.164Z" fill="#212121"/>
<path d="M282.883 346.164H278.62C278.262 346.164 277.972 345.873 277.972 345.515V343.471C277.972 343.112 278.262 342.822 278.62 342.822H282.883C283.241 342.822 283.531 343.112 283.531 343.471V345.515C283.531 345.873 283.241 346.164 282.883 346.164Z" fill="#212121"/>
<path d="M294.001 346.164H289.738C289.38 346.164 289.09 345.873 289.09 345.515V343.471C289.09 343.112 289.38 342.822 289.738 342.822H294.001C294.359 342.822 294.649 343.112 294.649 343.471V345.515C294.649 345.873 294.359 346.164 294.001 346.164Z" fill="#212121"/>
<path d="M305.118 346.164H300.855C300.497 346.164 300.207 345.873 300.207 345.515V343.471C300.207 343.112 300.497 342.822 300.855 342.822H305.118C305.476 342.822 305.766 343.112 305.766 343.471V345.515C305.766 345.873 305.476 346.164 305.118 346.164Z" fill="#212121"/>
<path d="M316.236 346.164H311.973C311.615 346.164 311.325 345.873 311.325 345.515V343.471C311.325 343.112 311.615 342.822 311.973 342.822H316.236C316.594 342.822 316.884 343.112 316.884 343.471V345.515C316.884 345.873 316.594 346.164 316.236 346.164Z" fill="#212121"/>
<path d="M327.354 346.164H323.091C322.733 346.164 322.443 345.873 322.443 345.515V343.471C322.443 343.112 322.733 342.822 323.091 342.822H327.354C327.711 342.822 328.002 343.112 328.002 343.471V345.515C328.002 345.873 327.711 346.164 327.354 346.164Z" fill="#212121"/>
<path d="M338.471 346.164H334.208C333.85 346.164 333.56 345.873 333.56 345.515V343.471C333.56 343.112 333.85 342.822 334.208 342.822H338.471C338.829 342.822 339.119 343.112 339.119 343.471V345.515C339.119 345.873 338.829 346.164 338.471 346.164Z" fill="#212121"/>
<path d="M349.589 346.164H345.326C344.968 346.164 344.678 345.873 344.678 345.515V343.471C344.678 343.112 344.968 342.822 345.326 342.822H349.589C349.947 342.822 350.237 343.112 350.237 343.471V345.515C350.237 345.873 349.947 346.164 349.589 346.164Z" fill="#212121"/>
<path d="M360.706 346.164H356.443C356.086 346.164 355.795 345.873 355.795 345.515V343.471C355.795 343.112 356.086 342.822 356.443 342.822H360.706C361.064 342.822 361.354 343.112 361.354 343.471V345.515C361.354 345.873 361.064 346.164 360.706 346.164Z" fill="#212121"/>
<path d="M371.824 346.164H367.561C367.203 346.164 366.913 345.873 366.913 345.515V343.471C366.913 343.112 367.203 342.822 367.561 342.822H371.824C372.182 342.822 372.472 343.112 372.472 343.471V345.515C372.472 345.873 372.182 346.164 371.824 346.164Z" fill="#212121"/>
<path d="M382.941 346.164H378.679C378.321 346.164 378.031 345.873 378.031 345.515V343.471C378.031 343.112 378.321 342.822 378.679 342.822H382.941C383.299 342.822 383.589 343.112 383.589 343.471V345.515C383.589 345.873 383.299 346.164 382.941 346.164Z" fill="#212121"/>
<path d="M216.046 351.735H211.783C211.425 351.735 211.135 351.444 211.135 351.086V349.042C211.135 348.683 211.425 348.392 211.783 348.392H216.046C216.404 348.392 216.694 348.683 216.694 349.042V351.086C216.694 351.444 216.404 351.735 216.046 351.735Z" fill="#212121"/>
<path d="M227.164 351.735H222.901C222.543 351.735 222.253 351.444 222.253 351.086V349.042C222.253 348.683 222.543 348.392 222.901 348.392H227.164C227.521 348.392 227.811 348.683 227.811 349.042V351.086C227.811 351.444 227.521 351.735 227.164 351.735Z" fill="#212121"/>
<path d="M238.281 351.735H234.018C233.66 351.735 233.37 351.444 233.37 351.086V349.042C233.37 348.683 233.66 348.392 234.018 348.392H238.281C238.639 348.392 238.929 348.683 238.929 349.042V351.086C238.929 351.444 238.639 351.735 238.281 351.735Z" fill="#212121"/>
<path d="M249.399 351.735H245.136C244.778 351.735 244.488 351.444 244.488 351.086V349.042C244.488 348.683 244.778 348.392 245.136 348.392H249.399C249.757 348.392 250.047 348.683 250.047 349.042V351.086C250.047 351.444 249.757 351.735 249.399 351.735Z" fill="#212121"/>
<path d="M260.517 351.735H256.254C255.896 351.735 255.606 351.444 255.606 351.086V349.042C255.606 348.683 255.896 348.392 256.254 348.392H260.517C260.874 348.392 261.165 348.683 261.165 349.042V351.086C261.165 351.444 260.874 351.735 260.517 351.735Z" fill="#212121"/>
<path d="M271.634 351.735H267.371C267.013 351.735 266.723 351.444 266.723 351.086V349.042C266.723 348.683 267.013 348.392 267.371 348.392H271.634C271.992 348.392 272.282 348.683 272.282 349.042V351.086C272.282 351.444 271.992 351.735 271.634 351.735Z" fill="#212121"/>
<path d="M282.752 351.735H278.489C278.131 351.735 277.841 351.444 277.841 351.086V349.042C277.841 348.683 278.131 348.392 278.489 348.392H282.752C283.11 348.392 283.4 348.683 283.4 349.042V351.086C283.4 351.444 283.11 351.735 282.752 351.735Z" fill="#212121"/>
<path d="M293.87 351.735H289.607C289.249 351.735 288.959 351.444 288.959 351.086V349.042C288.959 348.683 289.249 348.392 289.607 348.392H293.87C294.227 348.392 294.517 348.683 294.517 349.042V351.086C294.517 351.444 294.227 351.735 293.87 351.735Z" fill="#212121"/>
<path d="M304.987 351.735H300.724C300.366 351.735 300.076 351.444 300.076 351.086V349.042C300.076 348.683 300.366 348.392 300.724 348.392H304.987C305.345 348.392 305.635 348.683 305.635 349.042V351.086C305.635 351.444 305.345 351.735 304.987 351.735Z" fill="#212121"/>
<path d="M316.105 351.735H311.842C311.484 351.735 311.194 351.444 311.194 351.086V349.042C311.194 348.683 311.484 348.392 311.842 348.392H316.105C316.462 348.392 316.752 348.683 316.752 349.042V351.086C316.752 351.444 316.462 351.735 316.105 351.735Z" fill="#212121"/>
<path d="M327.222 351.735H322.959C322.601 351.735 322.311 351.444 322.311 351.086V349.042C322.311 348.683 322.601 348.392 322.959 348.392H327.222C327.58 348.392 327.87 348.683 327.87 349.042V351.086C327.87 351.444 327.58 351.735 327.222 351.735Z" fill="#212121"/>
<path d="M338.34 351.735H334.077C333.719 351.735 333.429 351.444 333.429 351.086V349.042C333.429 348.683 333.719 348.392 334.077 348.392H338.34C338.698 348.392 338.988 348.683 338.988 349.042V351.086C338.988 351.444 338.698 351.735 338.34 351.735Z" fill="#212121"/>
<path d="M349.457 351.735H345.194C344.836 351.735 344.546 351.444 344.546 351.086V349.042C344.546 348.683 344.836 348.392 345.194 348.392H349.457C349.815 348.392 350.105 348.683 350.105 349.042V351.086C350.105 351.444 349.815 351.735 349.457 351.735Z" fill="#212121"/>
<path d="M360.575 351.735H356.312C355.954 351.735 355.664 351.444 355.664 351.086V349.042C355.664 348.683 355.954 348.392 356.312 348.392H360.575C360.933 348.392 361.223 348.683 361.223 349.042V351.086C361.223 351.444 360.933 351.735 360.575 351.735Z" fill="#212121"/>
<path d="M371.692 351.735H367.429C367.072 351.735 366.781 351.444 366.781 351.086V349.042C366.781 348.683 367.072 348.392 367.429 348.392H371.692C372.05 348.392 372.34 348.683 372.34 349.042V351.086C372.34 351.444 372.05 351.735 371.692 351.735Z" fill="#212121"/>
<path d="M382.81 351.735H378.547C378.189 351.735 377.899 351.444 377.899 351.086V349.042C377.899 348.683 378.189 348.392 378.547 348.392H382.81C383.168 348.392 383.458 348.683 383.458 349.042V351.086C383.458 351.444 383.168 351.735 382.81 351.735Z" fill="#212121"/>
<path d="M308.322 358.42H265.148C264.79 358.42 264.5 358.129 264.5 357.771V355.727C264.5 355.368 264.79 355.078 265.148 355.078H308.322C308.68 355.078 308.97 355.368 308.97 355.727V357.771C308.97 358.129 308.68 358.42 308.322 358.42Z" fill="#212121"/>
<path d="M354.064 245.752H357.838C358.983 245.752 359.91 246.682 359.91 247.829C359.91 248.975 358.983 249.905 357.838 249.905H354.064C352.92 249.905 351.993 248.975 351.993 247.829C351.993 246.682 352.92 245.752 354.064 245.752Z" fill="#3DE76D"/>
<path d="M310.901 245.752H314.675C315.819 245.752 316.747 246.682 316.747 247.829C316.747 248.975 315.819 249.905 314.675 249.905H310.901C309.757 249.905 308.829 248.975 308.829 247.829C308.829 246.682 309.757 245.752 310.901 245.752Z" fill="#3DE76D"/>
<path d="M298.672 245.752H302.446C303.59 245.752 304.518 246.682 304.518 247.829C304.518 248.975 303.59 249.905 302.446 249.905H298.672C297.527 249.905 296.6 248.975 296.6 247.829C296.6 246.682 297.527 245.752 298.672 245.752Z" fill="#3DE76D"/>
<path d="M322.642 245.406H346.098C347.242 245.406 348.17 246.336 348.17 247.483C348.17 248.629 347.242 249.559 346.098 249.559H322.642C321.497 249.559 320.57 248.629 320.57 247.483C320.57 246.336 321.497 245.406 322.642 245.406Z" fill="#3DE76D"/>
<path d="M265.091 245.406H288.547C289.691 245.406 290.619 246.336 290.619 247.483C290.619 248.629 289.691 249.559 288.547 249.559H265.091C263.947 249.559 263.019 248.629 263.019 247.483C263.019 246.336 263.947 245.406 265.091 245.406Z" fill="#3DE76D"/>
<path d="M342.554 255.125H346.328C347.472 255.125 348.4 256.055 348.4 257.201C348.4 258.348 347.472 259.278 346.328 259.278H342.554C341.41 259.278 340.482 258.348 340.482 257.201C340.482 256.055 341.41 255.125 342.554 255.125Z" fill="#3DE76D"/>
<path d="M299.391 255.125H303.165C304.309 255.125 305.237 256.055 305.237 257.201C305.237 258.348 304.309 259.278 303.165 259.278H299.391C298.247 259.278 297.319 258.348 297.319 257.201C297.319 256.055 298.247 255.125 299.391 255.125Z" fill="#3DE76D"/>
<path d="M287.161 255.125H290.935C292.08 255.125 293.007 256.055 293.007 257.201C293.007 258.348 292.08 259.278 290.935 259.278H287.161C286.017 259.278 285.09 258.348 285.09 257.201C285.09 256.055 286.017 255.125 287.161 255.125Z" fill="#3DE76D"/>
<path d="M311.132 254.779H334.588C335.732 254.779 336.659 255.708 336.659 256.855C336.659 258.002 335.732 258.932 334.588 258.932H311.132C309.987 258.932 309.06 258.002 309.06 256.855C309.06 255.708 309.987 254.779 311.132 254.779Z" fill="#3DE76D"/>
<path d="M253.581 254.779H277.037C278.181 254.779 279.109 255.708 279.109 256.855C279.109 258.002 278.181 258.932 277.037 258.932H253.581C252.437 258.932 251.509 258.002 251.509 256.855C251.509 255.708 252.437 254.779 253.581 254.779Z" fill="#3DE76D"/>
<path d="M331.044 264.498H334.818C335.962 264.498 336.89 265.427 336.89 266.574C336.89 267.721 335.962 268.65 334.818 268.65H331.044C329.9 268.65 328.972 267.721 328.972 266.574C328.972 265.427 329.9 264.498 331.044 264.498Z" fill="#3DE76D"/>
<path d="M287.881 264.498H291.655C292.799 264.498 293.727 265.427 293.727 266.574C293.727 267.721 292.799 268.65 291.655 268.65H287.881C286.737 268.65 285.809 267.721 285.809 266.574C285.809 265.427 286.737 264.498 287.881 264.498Z" fill="#3DE76D"/>
<path d="M275.651 264.498H279.425C280.57 264.498 281.497 265.427 281.497 266.574C281.497 267.721 280.57 268.65 279.425 268.65H275.651C274.507 268.65 273.58 267.721 273.58 266.574C273.58 265.427 274.507 264.498 275.651 264.498Z" fill="#3DE76D"/>
<path d="M299.621 264.151H323.078C324.222 264.151 325.149 265.081 325.149 266.228C325.149 267.374 324.222 268.304 323.078 268.304H299.621C298.477 268.304 297.55 267.374 297.55 266.228C297.55 265.081 298.477 264.151 299.621 264.151Z" fill="#3DE76D"/>
<path d="M242.071 264.151H265.527C266.671 264.151 267.599 265.081 267.599 266.228C267.599 267.374 266.671 268.304 265.527 268.304H242.071C240.926 268.304 239.999 267.374 239.999 266.228C239.999 265.081 240.926 264.151 242.071 264.151Z" fill="#3DE76D"/>
<path d="M319.534 273.87H323.308C324.452 273.87 325.38 274.8 325.38 275.947C325.38 277.093 324.452 278.023 323.308 278.023H319.534C318.39 278.023 317.462 277.093 317.462 275.947C317.462 274.8 318.39 273.87 319.534 273.87Z" fill="#3DE76D"/>
<path d="M276.371 273.87H280.145C281.289 273.87 282.216 274.8 282.216 275.947C282.216 277.093 281.289 278.023 280.145 278.023H276.371C275.226 278.023 274.299 277.093 274.299 275.947C274.299 274.8 275.226 273.87 276.371 273.87Z" fill="#3DE76D"/>
<path d="M264.141 273.87H267.915C269.059 273.87 269.987 274.8 269.987 275.947C269.987 277.093 269.059 278.023 267.915 278.023H264.141C262.997 278.023 262.069 277.093 262.069 275.947C262.069 274.8 262.997 273.87 264.141 273.87Z" fill="#3DE76D"/>
<path d="M288.111 273.524H311.567C312.712 273.524 313.639 274.453 313.639 275.6C313.639 276.747 312.712 277.677 311.567 277.677H288.111C286.967 277.677 286.04 276.747 286.04 275.6C286.04 274.453 286.967 273.524 288.111 273.524Z" fill="#3DE76D"/>
<path d="M310.901 311.139H314.675C315.819 311.139 316.747 312.069 316.747 313.216C316.747 314.362 315.819 315.292 314.675 315.292H310.901C309.757 315.292 308.829 314.362 308.829 313.216C308.829 312.069 309.757 311.139 310.901 311.139Z" fill="#3DE76D"/>
<path d="M298.672 311.139H302.446C303.59 311.139 304.518 312.069 304.518 313.216C304.518 314.362 303.59 315.292 302.446 315.292H298.672C297.527 315.292 296.6 314.362 296.6 313.216C296.6 312.069 297.527 311.139 298.672 311.139Z" fill="#3DE76D"/>
<path d="M265.091 311.486H288.547C289.691 311.486 290.619 312.415 290.619 313.562C290.619 314.709 289.691 315.638 288.547 315.638H265.091C263.947 315.638 263.019 314.709 263.019 313.562C263.019 312.415 263.947 311.486 265.091 311.486Z" fill="#3DE76D"/>
<path d="M354.064 311.139H357.838C358.983 311.139 359.91 312.069 359.91 313.216C359.91 314.362 358.983 315.292 357.838 315.292H354.064C352.92 315.292 351.993 314.362 351.993 313.216C351.993 312.069 352.92 311.139 354.064 311.139Z" fill="#3DE76D"/>
<path d="M322.642 311.486H346.098C347.242 311.486 348.17 312.415 348.17 313.562C348.17 314.709 347.242 315.638 346.098 315.638H322.642C321.497 315.638 320.57 314.709 320.57 313.562C320.57 312.415 321.497 311.486 322.642 311.486Z" fill="#3DE76D"/>
<path d="M342.554 301.767H346.328C347.472 301.767 348.4 302.696 348.4 303.843C348.4 304.99 347.472 305.92 346.328 305.92H342.554C341.41 305.92 340.482 304.99 340.482 303.843C340.482 302.696 341.41 301.767 342.554 301.767Z" fill="#3DE76D"/>
<path d="M299.391 301.767H303.165C304.309 301.767 305.237 302.696 305.237 303.843C305.237 304.99 304.309 305.92 303.165 305.92H299.391C298.247 305.92 297.319 304.99 297.319 303.843C297.319 302.696 298.247 301.767 299.391 301.767Z" fill="#3DE76D"/>
<path d="M287.161 301.767H290.935C292.08 301.767 293.007 302.696 293.007 303.843C293.007 304.99 292.08 305.92 290.935 305.92H287.161C286.017 305.92 285.09 304.99 285.09 303.843C285.09 302.696 286.017 301.767 287.161 301.767Z" fill="#3DE76D"/>
<path d="M311.132 302.113H334.588C335.732 302.113 336.659 303.043 336.659 304.189C336.659 305.336 335.732 306.266 334.588 306.266H311.132C309.987 306.266 309.06 305.336 309.06 304.189C309.06 303.043 309.987 302.113 311.132 302.113Z" fill="#3DE76D"/>
<path d="M331.044 292.394H334.818C335.962 292.394 336.89 293.324 336.89 294.471C336.89 295.617 335.962 296.547 334.818 296.547H331.044C329.9 296.547 328.972 295.617 328.972 294.471C328.972 293.324 329.9 292.394 331.044 292.394Z" fill="#3DE76D"/>
<path d="M287.881 292.394H291.655C292.799 292.394 293.727 293.324 293.727 294.471C293.727 295.617 292.799 296.547 291.655 296.547H287.881C286.737 296.547 285.809 295.617 285.809 294.471C285.809 293.324 286.737 292.394 287.881 292.394Z" fill="#3DE76D"/>
<path d="M275.651 292.394H279.425C280.57 292.394 281.497 293.324 281.497 294.471C281.497 295.617 280.57 296.547 279.425 296.547H275.651C274.507 296.547 273.58 295.617 273.58 294.471C273.58 293.324 274.507 292.394 275.651 292.394Z" fill="#3DE76D"/>
<path d="M299.621 292.74H323.078C324.222 292.74 325.149 293.67 325.149 294.817C325.149 295.964 324.222 296.893 323.078 296.893H299.621C298.477 296.893 297.55 295.964 297.55 294.817C297.55 293.67 298.477 292.74 299.621 292.74Z" fill="#3DE76D"/>
<path d="M319.534 283.022H323.308C324.452 283.022 325.38 283.951 325.38 285.098C325.38 286.245 324.452 287.174 323.308 287.174H319.534C318.39 287.174 317.462 286.245 317.462 285.098C317.462 283.951 318.39 283.022 319.534 283.022Z" fill="#3DE76D"/>
<path d="M276.371 283.022H280.145C281.289 283.022 282.216 283.951 282.216 285.098C282.216 286.245 281.289 287.174 280.145 287.174H276.371C275.226 287.174 274.299 286.245 274.299 285.098C274.299 283.951 275.226 283.022 276.371 283.022Z" fill="#3DE76D"/>
<path d="M264.141 283.022H267.915C269.059 283.022 269.987 283.951 269.987 285.098C269.987 286.245 269.059 287.174 267.915 287.174H264.141C262.997 287.174 262.069 286.245 262.069 285.098C262.069 283.951 262.997 283.022 264.141 283.022Z" fill="#3DE76D"/>
<path d="M288.111 283.368H311.567C312.712 283.368 313.639 284.298 313.639 285.444C313.639 286.591 312.712 287.521 311.567 287.521H288.111C286.967 287.521 286.04 286.591 286.04 285.444C286.04 284.298 286.967 283.368 288.111 283.368Z" fill="#3DE76D"/>
<path d="M374.129 420.982L391.846 392.915L336.235 348.487L313.282 323.002C310.3 319.691 306.503 317.222 302.27 315.842C298.038 314.463 293.518 314.22 289.163 315.14C284.808 316.059 280.77 318.107 277.453 321.081C274.135 324.054 271.654 327.848 270.258 332.083C268.189 338.359 268.634 345.196 271.499 351.149C274.364 357.103 279.425 361.708 285.613 363.993L321.91 377.394L374.129 420.982Z" fill="#FFB6B6"/>
<path d="M789.831 217.48V353.892H694.474V217.48C694.473 216.499 694.785 215.543 695.366 214.753C695.946 213.963 696.764 213.38 697.699 213.091C698.14 212.945 698.602 212.873 699.066 212.878H785.225C785.829 212.877 786.428 212.995 786.986 213.226C787.544 213.456 788.052 213.795 788.48 214.222C788.907 214.65 789.247 215.157 789.479 215.716C789.71 216.275 789.83 216.875 789.831 217.48ZM752.617 264.352C752.592 261.662 751.509 259.092 749.603 257.199C747.696 255.306 745.121 254.244 742.438 254.244C739.754 254.244 737.179 255.306 735.273 257.199C733.367 259.092 732.283 261.662 732.259 264.352V280.18C732.272 282.876 733.351 285.458 735.258 287.36C737.166 289.262 739.747 290.329 742.438 290.329C745.129 290.329 747.71 289.262 749.617 287.36C751.525 285.458 752.603 282.876 752.617 280.18V264.352Z" fill="#696969"/>
<path d="M790.122 349.53V362.684C790.12 363.366 789.85 364.019 789.371 364.502C788.891 364.985 788.241 365.259 787.561 365.265H696.744C696.063 365.261 695.411 364.988 694.931 364.504C694.451 364.021 694.182 363.366 694.182 362.684V349.53H790.122Z" fill="#363636"/>
<path d="M939.839 11.9573V261.027C939.836 264.201 938.577 267.244 936.338 269.489C934.098 271.733 931.062 272.995 927.894 272.997H559.609C556.441 272.995 553.405 271.733 551.165 269.489C548.926 267.244 547.667 264.201 547.664 261.027V11.9573C547.672 8.78607 548.933 5.74704 551.172 3.50585C553.41 1.26467 556.444 0.00402748 559.609 0H927.894C931.059 0.0040415 934.093 1.26471 936.331 3.50589C938.57 5.74708 939.831 8.78608 939.839 11.9573Z" fill="#696969"/>
<path d="M931.199 15.0564V257.954C931.196 259.65 930.523 261.276 929.326 262.475C928.13 263.674 926.507 264.349 924.815 264.352H562.674C560.982 264.349 559.36 263.674 558.163 262.475C556.967 261.276 556.293 259.65 556.29 257.954V15.0564C556.291 13.3585 556.963 11.7299 558.16 10.5281C559.356 9.32621 560.98 8.64913 562.674 8.64545H924.815C926.51 8.64915 928.133 9.32621 929.33 10.5281C930.527 11.7299 931.199 13.3585 931.199 15.0564Z" fill="#121111"/>
<path d="M863.992 364.373C863.623 364.837 863.155 365.21 862.622 365.466C862.088 365.721 861.504 365.853 860.913 365.85H645.462C644.873 365.849 644.291 365.717 643.76 365.462C643.228 365.208 642.759 364.838 642.388 364.379C642.017 363.921 641.753 363.385 641.614 362.811C641.475 362.237 641.466 361.639 641.587 361.061L644.932 345.14C645.07 344.491 645.369 343.887 645.8 343.383C646.231 342.879 646.781 342.491 647.4 342.254C647.848 342.078 648.325 341.988 648.807 341.988H857.582C858.063 341.988 858.54 342.078 858.989 342.254C859.608 342.491 860.158 342.879 860.589 343.383C861.02 343.887 861.318 344.491 861.457 345.14L864.801 361.061C864.92 361.639 864.91 362.236 864.77 362.809C864.629 363.382 864.364 363.916 863.992 364.373Z" fill="#696969"/>
<path d="M574.427 42.1055H913.281C913.633 42.0977 913.968 41.952 914.215 41.6996C914.461 41.4472 914.599 41.1081 914.599 40.755C914.599 40.402 914.461 40.0629 914.215 39.8105C913.968 39.5581 913.633 39.4124 913.281 39.4045H574.427C574.075 39.4124 573.74 39.5581 573.493 39.8105C573.247 40.0629 573.109 40.402 573.109 40.755C573.109 41.1081 573.247 41.4472 573.493 41.6996C573.74 41.952 574.075 42.0977 574.427 42.1055Z" fill="#363636"/>
<path d="M890.215 32.5093C885.853 32.5093 882.318 28.8869 882.318 24.4185C882.318 19.95 885.853 16.3276 890.215 16.3276C894.576 16.3276 898.112 19.95 898.112 24.4185C898.112 28.8869 894.576 32.5093 890.215 32.5093Z" fill="#363636"/>
<path d="M862.934 32.5093C858.572 32.5093 855.037 28.8869 855.037 24.4185C855.037 19.95 858.572 16.3276 862.934 16.3276C867.295 16.3276 870.831 19.95 870.831 24.4185C870.831 28.8869 867.295 32.5093 862.934 32.5093Z" fill="#363636"/>
<path d="M835.652 32.5093C831.291 32.5093 827.755 28.8869 827.755 24.4185C827.755 19.95 831.291 16.3276 835.652 16.3276C840.014 16.3276 843.55 19.95 843.55 24.4185C843.55 28.8869 840.014 32.5093 835.652 32.5093Z" fill="#363636"/>
<path d="M590.854 18.3284H610.231C610.614 18.3373 610.978 18.4961 611.246 18.7707C611.514 19.0454 611.664 19.4141 611.664 19.7981C611.664 20.182 611.514 20.5508 611.246 20.8255C610.978 21.1001 610.614 21.2589 610.231 21.2678H590.854C590.469 21.2624 590.101 21.1051 589.831 20.8301C589.56 20.5551 589.408 20.1843 589.408 19.7981C589.408 19.4118 589.56 19.0411 589.831 18.7661C590.101 18.4911 590.469 18.3338 590.854 18.3284Z" fill="#363636"/>
<path d="M590.855 23.8481H610.231C610.614 23.8566 610.979 24.0152 611.247 24.2899C611.515 24.5646 611.666 24.9336 611.666 25.3178C611.666 25.7021 611.515 26.0711 611.247 26.3458C610.979 26.6205 610.614 26.779 610.231 26.7875H590.855C590.469 26.7829 590.1 26.626 589.829 26.3509C589.558 26.0757 589.406 25.7046 589.406 25.3178C589.406 24.9311 589.558 24.5599 589.829 24.2848C590.1 24.0096 590.469 23.8527 590.855 23.8481Z" fill="#363636"/>
<path d="M590.854 29.3678H610.231C610.614 29.3767 610.978 29.5355 611.246 29.8102C611.514 30.0848 611.664 30.4536 611.664 30.8375C611.664 31.2215 611.514 31.5902 611.246 31.8649C610.978 32.1395 610.614 32.2983 610.231 32.3072H590.854C590.469 32.3018 590.101 32.1446 589.831 31.8695C589.56 31.5945 589.408 31.2238 589.408 30.8375C589.408 30.4513 589.56 30.0806 589.831 29.8055C590.101 29.5305 590.469 29.3732 590.854 29.3678Z" fill="#363636"/>
<path d="M123.722 355.303C123.138 357.009 122.028 358.486 120.554 359.521C119.08 360.556 117.316 361.096 115.516 361.063L80.3576 360.157C78.5447 360.121 76.7918 359.499 75.3611 358.382C73.9304 357.266 72.8986 355.715 72.42 353.962L67.4447 300.643C65.6795 301.445 63.7578 301.841 61.8203 301.802C60.137 301.759 58.4785 301.385 56.9395 300.7C55.4005 300.016 54.0112 299.034 52.8508 297.811C51.6904 296.588 50.7818 295.148 50.1766 293.574C49.5715 291.999 49.2817 290.32 49.324 288.633C49.3662 286.946 49.7397 285.284 50.4229 283.741C51.1061 282.199 52.0857 280.807 53.3059 279.644C54.526 278.481 55.9627 277.57 57.5341 276.964C59.1054 276.357 60.7806 276.067 62.4639 276.109C63.2383 276.107 64.0107 276.187 64.7681 276.349C65.5917 275.456 66.5927 274.746 67.7068 274.264C68.8209 273.783 70.0233 273.54 71.2367 273.552L125.319 274.952C125.768 274.968 126.214 275.024 126.653 275.118C127.839 275.339 128.964 275.813 129.952 276.507C130.94 277.201 131.768 278.099 132.381 279.14C132.994 280.182 133.377 281.343 133.505 282.545C133.632 283.747 133.501 284.963 133.121 286.11L123.722 355.303ZM66.4244 297.023L62.884 284.317C62.4813 282.85 62.472 281.301 62.857 279.829C62.6852 279.828 62.5337 279.747 62.3619 279.746C59.9344 279.696 57.586 280.613 55.8317 282.295C54.0774 283.977 53.0603 286.288 53.0035 288.721C52.9466 291.154 53.8547 293.51 55.5285 295.272C57.2023 297.035 59.5053 298.061 61.9325 298.124C63.5018 298.173 65.0549 297.793 66.4244 297.023Z" fill="#696969"/>
<path d="M126.653 275.118C125.501 281.72 112.547 286.362 96.9702 285.555C82.6466 284.894 70.9348 279.853 68.7891 273.879C69.5832 273.644 70.409 273.533 71.2369 273.552L125.319 274.952C125.768 274.968 126.214 275.024 126.653 275.118Z" fill="#434343"/>
<path d="M658.414 269.838L658.126 270.749L658.111 270.779L649.451 297.165L639.489 327.572L620.746 384.713L620.564 393.59V393.62L619.171 465.024L623.032 474.705L618.687 490.576C618.687 490.576 620.685 466.585 631.404 480.362C637.475 488.192 644.576 496.203 650.405 503.714C641.911 507.158 633.282 510.273 624.516 513.06C622.623 513.667 620.716 514.244 618.808 514.82C618.399 514.942 617.99 515.063 617.582 515.184C588.524 523.797 558.483 528.636 528.196 529.584C526.622 529.629 525.078 529.659 523.579 529.69C523.049 529.705 522.534 529.72 522.019 529.72C520.324 529.735 518.643 529.75 516.948 529.75C513.526 529.75 510.12 529.7 506.728 529.599C481.627 528.89 456.673 525.507 432.286 519.509C432.453 509.419 432.907 497.629 433.558 485.036C433.861 478.86 440.658 472.169 441.067 465.705C441.355 460.85 435.253 456.283 435.571 451.351C437.63 420.99 440.204 432.645 442.112 411.145C442.309 409.036 442.49 407.018 442.657 405.091C443.883 391.283 444.731 382.65 444.731 382.65L436.586 331.198L423.793 250.417L424.777 248.793L425.882 248.247L493.36 214.775L497.024 205.368C498.091 202.658 499.943 200.33 502.342 198.683C504.74 197.036 507.576 196.146 510.483 196.128L554.933 195.946C557.24 195.935 559.516 196.476 561.573 197.524C563.629 198.572 565.406 200.096 566.758 201.969L578.794 218.675L658.414 269.838Z" fill="#494949"/>
<path d="M610.496 371.998L620.564 393.59L627.437 408.338L639.262 470.38L645.181 476.677L650.253 454.386L703.336 466.198C705.078 456.503 703.802 466.526 704.877 455.89C704.575 455.587 704.257 455.283 703.939 454.98C703.091 454.191 702.379 453.447 702.394 452.734C703 416.046 701.183 353.609 686.013 315.782C683.637 309.606 680.505 303.75 676.687 298.348C676.384 297.939 676.097 297.529 675.809 297.119C668.815 287.302 664.394 277.637 658.126 270.764V270.749C658.087 270.717 658.051 270.682 658.02 270.642C657.997 270.631 657.977 270.616 657.959 270.597L614.902 247.716L613.055 299.729L611.738 337.116L610.496 371.998Z" fill="#494949"/>
<path d="M455.239 378.131L442.663 405.098L438.274 414.49L426.453 476.526L420.553 482.808L415.469 460.522L413.081 460.031L370.003 451.09L357.447 491.054C354.618 486.328 353.503 480.768 354.291 475.314C355.08 469.86 357.724 464.846 361.776 461.12C362.633 460.342 363.347 459.585 363.327 458.869C362.613 415.717 365.246 336.923 389.031 304.493C396.585 294.201 401.117 283.95 407.711 276.789C407.732 276.769 407.732 276.748 407.752 276.748L423.799 250.415L424.779 248.799L425.881 248.246L455.239 378.131Z" fill="#494949"/>
<path d="M531.424 183.268C498.764 183.268 472.288 156.734 472.288 124.002C472.288 91.2705 498.764 64.7363 531.424 64.7363C564.084 64.7363 590.56 91.2705 590.56 124.002C590.56 156.734 564.084 183.268 531.424 183.268Z" fill="#FFB6B6"/>
<path d="M451.495 82.6054C451.953 82.1146 452.506 81.7215 453.119 81.4495C453.733 81.1776 454.394 81.0324 455.065 81.0226L454.176 78.5487C453.886 77.7694 453.807 76.9268 453.949 76.1073C454.091 75.2877 454.447 74.5206 454.982 73.8845C455.517 73.2484 456.21 72.7663 456.992 72.4874C457.774 72.2085 458.616 72.1429 459.431 72.2973L462.67 72.9225L462.364 70.7544C462.247 69.947 462.342 69.1229 462.639 68.3632C462.936 67.6036 463.426 66.9345 464.059 66.4218C464.692 65.9092 465.448 65.5706 466.252 65.4394C467.055 65.3082 467.879 65.3889 468.642 65.6735C469.336 65.9473 470.082 66.062 470.827 66.0091C471.571 65.9561 472.293 65.737 472.942 65.3676C473.593 65.0096 474.158 64.5135 474.599 63.9139C475.039 63.3143 475.343 62.6257 475.49 61.8961L476.618 56.4428L476.738 56.1502C482.232 46.9727 492.796 40.2957 505.723 37.8483C517.229 35.6537 529.028 36.771 540.401 37.8218C544.914 38.2474 550.01 38.7262 554.257 41.3331C557.867 43.5677 560.919 48.0367 560.295 52.5457C571.51 49.1008 583.534 55.9772 589.493 64.6493C596.553 74.9707 597.708 87.899 597.894 98.0076C598.398 121.922 593.474 141.488 583.295 156.172C582.552 157.236 582.366 159.457 580.893 160.202L581.198 159.71C579.552 160.534 577.88 161.864 578.504 163.288C580.296 167.384 568.391 176.442 560.003 179.435C544.701 184.901 524.356 184.436 510.049 182.467L509.545 179.076C504.382 178.371 500.746 177.027 499.724 174.926C497.919 173.383 496.379 172 495.039 170.723L495.026 170.709C494.999 170.683 494.946 170.643 494.92 170.616C488.456 164.405 486.957 160.867 486.28 155.48C485.63 150.2 486.784 144.84 487.965 140.011C463.094 143.869 497.76 113.463 474.588 107.584C474.322 107.502 474.052 107.435 473.778 107.385C473.101 107.225 472.424 107.065 471.774 106.879C468.639 106.026 465.638 104.742 462.855 103.062C456.379 99.1116 454.242 93.8711 450.898 87.9656C450.415 87.1247 450.213 86.1515 450.32 85.1874C450.428 84.2234 450.839 83.3188 451.495 82.6054Z" fill="#222222"/>
<path d="M322.27 382.35C322.283 384.678 322.31 387.937 322.416 391.967C322.429 392.526 322.443 393.097 322.456 393.683C322.629 401.091 322.801 407.303 323.08 414.206C323.093 414.685 323.106 415.15 323.133 415.629C323.505 425.259 324.088 436.471 325.097 454.228C326.968 487.027 330.233 458.737 333.511 470.242C333.671 470.814 333.843 471.492 334.002 472.29C334.499 475.186 335.336 478.012 336.497 480.709C338.236 481.747 340.028 482.744 341.793 483.742C346.823 486.548 351.932 489.248 357.082 491.816C359.975 493.252 362.881 494.662 365.801 496.019C366.265 496.231 366.717 496.444 367.168 496.644C382.119 503.575 397.529 509.467 413.287 514.28C416.366 515.212 419.431 516.116 422.537 516.954C425.775 517.858 429.013 518.71 432.291 519.508C456.678 525.508 481.631 528.892 506.732 529.603C510.116 529.709 513.527 529.749 516.951 529.749C518.649 529.749 520.322 529.736 522.02 529.723C522.538 529.723 523.056 529.709 523.573 529.696C525.073 529.656 526.626 529.629 528.192 529.59C558.479 528.643 588.519 523.802 617.576 515.185L618.81 514.826C620.721 514.241 622.619 513.669 624.517 513.057C633.276 510.277 641.907 507.165 650.41 503.72C656.899 501.099 663.314 498.289 669.653 495.287C669.711 495.271 669.765 495.244 669.813 495.207C671.14 494.595 672.48 493.957 673.807 493.305C673.98 493.212 674.166 493.119 674.352 493.026C679.302 490.605 684.199 488.069 689.043 485.418C693.118 476.041 698.851 474.245 702.408 465.999C703.443 463.549 704.191 460.987 704.637 458.364C704.637 458.338 704.651 458.311 704.651 458.271C704.279 463.219 706.23 449.493 704.664 458.218C704.677 458.058 704.69 457.885 704.704 457.686C704.743 457.207 704.796 456.622 704.876 455.89C709.428 411.346 709.136 360.404 711.114 318.427C711.246 315.714 711.384 313.116 711.525 310.633C711.565 309.808 711.618 308.997 711.671 308.199C711.578 307.96 711.472 307.707 711.353 307.467C711.327 307.398 711.296 307.332 711.26 307.268C711.221 307.185 711.176 307.105 711.127 307.028C711.1 306.989 711.061 306.935 711.034 306.895C711.015 306.85 710.993 306.805 710.968 306.762C710.848 306.576 710.716 306.377 710.57 306.19C710.503 306.111 710.45 306.044 710.384 305.978C710.338 305.91 710.285 305.847 710.225 305.791C710.184 305.728 710.135 305.669 710.079 305.619C710.025 305.565 709.972 305.499 709.906 305.432C709.878 305.391 709.842 305.354 709.8 305.326C709.695 305.205 709.579 305.094 709.455 304.993C708.981 304.557 708.476 304.157 707.942 303.796C707.756 303.677 707.557 303.557 707.371 303.424C706.034 302.622 704.625 301.945 703.164 301.402C702.66 301.216 702.155 301.043 701.611 300.857C701.412 300.804 701.226 300.737 701.027 300.671C700.735 300.578 700.443 300.485 700.138 300.418C698.625 299.966 696.993 299.58 695.228 299.221C695.015 299.181 694.79 299.141 694.564 299.088C694.246 299.021 693.914 298.968 693.582 298.915C693.131 298.835 692.666 298.755 692.202 298.676C688.26 298.051 683.788 297.585 678.851 297.279C678.386 297.252 677.922 297.226 677.457 297.199C676.913 297.173 676.369 297.146 675.811 297.119C675.347 297.093 674.869 297.08 674.391 297.066C673.927 297.04 673.449 297.026 672.958 297.013C671.618 296.973 670.237 296.933 668.831 296.907C664.823 296.827 660.602 296.853 656.169 296.947C654.112 297 652.015 297.053 649.865 297.146C649.719 297.146 649.587 297.159 649.454 297.159C647.583 297.226 645.698 297.306 643.761 297.412C642.407 297.479 641.04 297.545 639.673 297.625C638.386 297.705 637.085 297.785 635.771 297.878C634.749 297.931 633.727 298.011 632.692 298.077C631.816 298.144 630.94 298.21 630.064 298.263L628.87 298.343C628.22 298.396 627.569 298.436 626.906 298.503C625.446 298.622 623.986 298.742 622.5 298.862C621.026 298.995 619.527 299.128 618.027 299.261C616.527 299.394 615.014 299.54 613.501 299.687C613.342 299.7 613.196 299.713 613.05 299.726C611.67 299.873 610.29 300.006 608.896 300.152C608.578 300.179 608.246 300.205 607.927 300.245C606.599 300.379 605.244 300.535 603.903 300.678C603.492 300.723 603.083 300.766 602.67 300.811C601.62 300.926 600.584 301.025 599.527 301.15C598.133 301.309 596.713 301.455 595.333 301.642C594.258 301.761 593.183 301.881 592.108 302.014C590.422 302.214 588.71 302.426 586.998 302.653C586.348 302.732 585.698 302.812 585.047 302.905C580.163 303.517 575.226 304.195 570.21 304.9C562.605 305.978 554.881 307.148 547.104 308.412C539.313 309.675 531.479 311.01 523.6 312.415C521.609 312.774 519.618 313.133 517.614 313.506C516.712 313.679 515.81 313.852 514.907 314.025C513.368 314.304 511.828 314.597 510.289 314.889C508.749 315.182 507.21 315.474 505.67 315.78C503.839 316.139 501.994 316.499 500.162 316.858C488.099 319.252 476.101 321.806 464.396 324.479C462.471 324.918 460.547 325.37 458.636 325.809C454.813 326.7 451.027 327.605 447.275 328.522C446.24 328.762 445.218 329.015 444.196 329.267C441.648 329.906 439.1 330.544 436.592 331.196L436.154 331.316C434.309 331.768 432.504 332.233 430.699 332.712C426.439 333.829 422.249 334.96 418.131 336.104C415.397 336.862 412.694 337.629 410.022 338.405C406.027 339.562 402.112 340.732 398.303 341.916C397.361 342.209 396.419 342.501 395.49 342.781C392.703 343.645 389.955 344.523 387.288 345.401C385.164 346.093 383.094 346.798 381.05 347.503C379.006 348.208 377.002 348.912 375.038 349.617C373.777 350.07 372.53 350.548 371.282 351.001C369.491 351.666 367.725 352.331 366 352.996C365.469 353.195 364.952 353.408 364.434 353.608C364.102 353.754 363.784 353.874 363.465 354.007C362.842 354.259 362.204 354.499 361.594 354.751C360.97 354.991 360.36 355.244 359.749 355.51C359.152 355.749 358.542 356.002 357.958 356.254C357.36 356.494 356.776 356.747 356.192 357.013C355.701 357.212 355.224 357.425 354.759 357.638C353.817 358.05 352.875 358.462 351.959 358.888C351.508 359.101 351.056 359.3 350.605 359.513L349.57 359.992C349.424 360.072 349.278 360.138 349.132 360.205C348.8 360.364 348.455 360.537 348.123 360.697C347.354 361.056 346.597 361.442 345.854 361.801C344.859 362.306 343.89 362.812 342.961 363.304C342.018 363.809 341.103 364.315 340.227 364.807C340.081 364.887 339.948 364.966 339.802 365.046C339.603 365.153 339.404 365.272 339.205 365.379C338.528 365.764 337.878 366.163 337.227 366.549C335.953 367.334 334.746 368.105 333.618 368.877C333.365 369.05 333.126 369.223 332.874 369.382C332.038 369.981 331.242 370.566 330.499 371.164C330.499 371.178 330.499 371.178 330.485 371.178C330.233 371.364 329.994 371.563 329.755 371.75C329.556 371.936 329.344 372.096 329.145 372.282C328.455 372.88 327.818 373.452 327.234 374.037C327.038 374.218 326.852 374.409 326.676 374.609C326.599 374.674 326.528 374.745 326.464 374.822C326.199 375.088 325.96 375.354 325.734 375.62C325.699 375.657 325.668 375.697 325.641 375.74C325.323 376.112 325.031 376.485 324.752 376.857C324.619 377.043 324.473 377.23 324.354 377.416C324.195 377.642 324.035 377.881 323.903 378.107C323.783 378.294 323.677 378.493 323.571 378.679C323.289 379.159 323.049 379.662 322.854 380.182C322.705 380.535 322.585 380.9 322.496 381.273C322.395 381.626 322.32 381.986 322.27 382.35Z" fill="#323232"/>
<path d="M322.27 382.351C322.283 384.678 322.31 387.937 322.416 391.967C322.429 392.526 322.456 393.098 322.469 393.683C322.602 399.336 322.801 406.318 323.08 414.206C323.093 414.685 323.106 415.15 323.133 415.629C323.504 425.259 324.088 436.471 325.097 454.228C326.968 487.027 330.233 458.737 333.511 470.242C342.615 464.629 352.596 458.75 363.266 452.711C365.19 451.621 367.132 450.526 369.092 449.426C390.433 437.495 414.268 424.993 439.153 412.61C440.135 412.118 441.13 411.625 442.112 411.147C499.114 382.909 561.331 355.443 611.736 337.115C621.464 333.577 630.754 330.385 639.487 327.578C657.881 321.686 673.781 317.563 686.017 315.78C698.758 313.918 707.557 314.583 711.114 318.427C711.246 315.714 711.384 313.116 711.525 310.633C711.578 309.808 711.631 308.997 711.684 308.199C711.602 307.98 711.496 307.771 711.393 307.56C711.378 307.53 711.368 307.498 711.353 307.467C711.327 307.398 711.296 307.332 711.26 307.268C711.22 307.185 711.176 307.105 711.127 307.028C711.084 306.934 711.03 306.845 710.968 306.762C710.848 306.576 710.716 306.377 710.57 306.191C710.462 306.051 710.347 305.918 710.224 305.791C710.184 305.728 710.135 305.669 710.078 305.619C710.025 305.565 709.972 305.499 709.906 305.432C709.878 305.391 709.842 305.354 709.8 305.326C709.695 305.205 709.579 305.094 709.455 304.994C708.981 304.557 708.475 304.157 707.942 303.796C707.756 303.677 707.557 303.557 707.371 303.424C706.034 302.622 704.625 301.945 703.164 301.402C702.66 301.216 702.155 301.043 701.611 300.857C701.412 300.804 701.226 300.737 701.027 300.671C700.735 300.578 700.443 300.485 700.138 300.418C698.625 299.966 696.993 299.58 695.228 299.221C694.697 299.115 694.139 299.008 693.582 298.915C693.131 298.835 692.666 298.755 692.202 298.676C688.26 298.051 683.787 297.585 678.85 297.279C678.386 297.252 677.921 297.226 677.457 297.199C676.913 297.173 676.369 297.146 675.811 297.119C675.347 297.093 674.869 297.08 674.391 297.066C673.927 297.04 673.449 297.026 672.958 297.013C671.617 296.973 670.237 296.933 668.83 296.907C664.822 296.84 660.602 296.867 656.169 296.96C654.112 297 652.015 297.066 649.865 297.159C649.733 297.159 649.587 297.173 649.454 297.173C647.583 297.226 645.685 297.319 643.76 297.412C642.407 297.479 641.04 297.545 639.673 297.625C638.386 297.705 637.085 297.784 635.771 297.878C634.749 297.931 633.727 298.011 632.692 298.077C631.816 298.144 630.94 298.21 630.064 298.263C629.016 298.343 627.967 298.423 626.906 298.503C625.446 298.622 623.986 298.742 622.499 298.862C621.026 298.995 619.527 299.128 618.027 299.261C616.527 299.394 615.014 299.54 613.501 299.686C613.342 299.7 613.196 299.713 613.05 299.726C611.67 299.873 610.29 300.006 608.896 300.152C601.172 300.937 593.222 301.855 585.047 302.905C580.163 303.53 575.217 304.2 570.209 304.914C562.605 305.991 554.881 307.161 547.104 308.412C539.313 309.675 531.479 311.01 523.6 312.415C521.609 312.774 519.618 313.134 517.614 313.506C515.172 313.958 512.73 314.419 510.288 314.889C508.749 315.182 507.209 315.474 505.67 315.78C503.838 316.14 501.994 316.499 500.162 316.858C488.098 319.252 476.101 321.806 464.395 324.479C462.471 324.918 460.547 325.37 458.635 325.809C454.813 326.7 451.026 327.605 447.275 328.522C446.24 328.775 445.218 329.028 444.196 329.281C441.635 329.919 439.1 330.557 436.591 331.196V331.209C436.445 331.236 436.299 331.276 436.153 331.316C434.322 331.781 432.504 332.247 430.699 332.726C426.439 333.843 422.249 334.969 418.131 336.104C415.397 336.875 412.689 337.633 410.022 338.405C406.027 339.575 402.112 340.746 398.303 341.916C397.361 342.209 396.418 342.502 395.489 342.781C392.702 343.659 389.968 344.532 387.287 345.401C385.164 346.093 383.094 346.798 381.05 347.503C379.006 348.208 377.002 348.913 375.038 349.617C373.764 350.07 372.516 350.535 371.282 350.987C369.477 351.652 367.725 352.317 366 352.996C365.469 353.195 364.951 353.408 364.434 353.608C363.465 353.98 362.523 354.366 361.594 354.752C360.97 354.991 360.359 355.244 359.749 355.51C359.152 355.749 358.541 356.002 357.957 356.255C357.36 356.494 356.776 356.747 356.192 357.013C355.701 357.212 355.223 357.425 354.759 357.638C353.817 358.05 352.874 358.462 351.959 358.888C351.507 359.101 351.056 359.3 350.605 359.513L349.57 359.992C349.424 360.072 349.278 360.138 349.132 360.205C348.004 360.737 346.915 361.269 345.854 361.801C344.858 362.306 343.889 362.812 342.96 363.304C341.859 363.889 340.81 364.461 339.802 365.046C339.603 365.153 339.404 365.272 339.205 365.379C338.528 365.765 337.877 366.164 337.227 366.549C335.953 367.334 334.745 368.105 333.617 368.877C332.502 369.648 331.467 370.406 330.498 371.165C330.498 371.178 330.498 371.178 330.485 371.178C330.021 371.55 329.569 371.923 329.145 372.282C328.455 372.88 327.818 373.452 327.234 374.037C327.038 374.218 326.852 374.409 326.676 374.609C326.599 374.674 326.528 374.745 326.464 374.822C326.185 375.128 325.906 375.434 325.641 375.74C325.322 376.112 325.03 376.485 324.752 376.857C324.619 377.043 324.473 377.23 324.354 377.416C324.194 377.642 324.035 377.881 323.902 378.108C323.783 378.294 323.677 378.493 323.571 378.68C323.289 379.159 323.049 379.662 322.854 380.182C322.709 380.537 322.589 380.901 322.496 381.273C322.395 381.626 322.32 381.987 322.27 382.351Z" fill="#1F1F1F"/>
<path d="M844.2 91.3488H851.026C853.095 91.3488 854.773 93.0749 854.773 95.2041C854.773 97.3334 853.095 99.0594 851.026 99.0594H844.2C842.131 99.0594 840.453 97.3334 840.453 95.2041C840.453 93.0749 842.131 91.3488 844.2 91.3488Z" fill="#3DE76D"/>
<path d="M763.79 91.3488H770.616C772.685 91.3488 774.363 93.0749 774.363 95.2041C774.363 97.3334 772.685 99.0594 770.616 99.0594H763.79C761.721 99.0594 760.043 97.3334 760.043 95.2041C760.043 93.0749 761.721 91.3488 763.79 91.3488Z" fill="#3DE76D"/>
<path d="M740.658 91.3488H747.484C749.553 91.3488 751.231 93.0749 751.231 95.2041C751.231 97.3334 749.553 99.0594 747.484 99.0594H740.658C738.589 99.0594 736.911 97.3334 736.911 95.2041C736.911 93.0749 738.589 91.3488 740.658 91.3488Z" fill="#3DE76D"/>
<path d="M784.858 90.2473H828.856C831.003 90.2473 832.743 91.9734 832.743 94.1026C832.743 96.2318 831.003 97.9579 828.856 97.9579H784.858C782.711 97.9579 780.971 96.2318 780.971 94.1026C780.971 91.9734 782.711 90.2473 784.858 90.2473Z" fill="#3DE76D"/>
<path d="M678.011 90.2473H722.01C724.156 90.2473 725.896 91.9734 725.896 94.1026C725.896 96.2318 724.156 97.9579 722.01 97.9579H678.011C675.865 97.9579 674.125 96.2318 674.125 94.1026C674.125 91.9734 675.865 90.2473 678.011 90.2473Z" fill="#3DE76D"/>
<path d="M822.458 108.973H829.809C832.037 108.973 833.844 110.699 833.844 112.828C833.844 114.958 832.037 116.684 829.809 116.684H822.458C820.23 116.684 818.423 114.958 818.423 112.828C818.423 110.699 820.23 108.973 822.458 108.973Z" fill="#3DE76D"/>
<path d="M742.048 108.973H749.399C751.627 108.973 753.434 110.699 753.434 112.828C753.434 114.958 751.627 116.684 749.399 116.684H742.048C739.819 116.684 738.013 114.958 738.013 112.828C738.013 110.699 739.819 108.973 742.048 108.973Z" fill="#3DE76D"/>
<path d="M718.916 108.973H726.267C728.495 108.973 730.302 110.699 730.302 112.828C730.302 114.958 728.495 116.684 726.267 116.684H718.916C716.687 116.684 714.881 114.958 714.881 112.828C714.881 110.699 716.687 108.973 718.916 108.973Z" fill="#3DE76D"/>
<path d="M763.929 107.872H807.928C810.074 107.872 811.814 109.598 811.814 111.727C811.814 113.856 810.074 115.582 807.928 115.582H763.929C761.783 115.582 760.043 113.856 760.043 111.727C760.043 109.598 761.783 107.872 763.929 107.872Z" fill="#3DE76D"/>
<path d="M657 107.872H700.062C702.163 107.872 703.866 109.598 703.866 111.727C703.866 113.856 702.163 115.582 700.062 115.582H657C654.899 115.582 653.196 113.856 653.196 111.727C653.196 109.598 654.899 107.872 657 107.872Z" fill="#3DE76D"/>
<path d="M801.241 126.597H808.067C810.136 126.597 811.814 128.323 811.814 130.452C811.814 132.582 810.136 134.308 808.067 134.308H801.241C799.172 134.308 797.494 132.582 797.494 130.452C797.494 128.323 799.172 126.597 801.241 126.597Z" fill="#3DE76D"/>
<path d="M720.831 126.597H727.657C729.726 126.597 731.403 128.323 731.403 130.452C731.403 132.582 729.726 134.308 727.657 134.308H720.831C718.761 134.308 717.084 132.582 717.084 130.452C717.084 128.323 718.761 126.597 720.831 126.597Z" fill="#3DE76D"/>
<path d="M697.699 126.597H704.525C706.594 126.597 708.272 128.323 708.272 130.452C708.272 132.582 706.594 134.308 704.525 134.308H697.699C695.63 134.308 693.952 132.582 693.952 130.452C693.952 128.323 695.63 126.597 697.699 126.597Z" fill="#3DE76D"/>
<path d="M742.917 125.496H785.98C788.081 125.496 789.784 127.222 789.784 129.351C789.784 131.48 788.081 133.206 785.98 133.206H742.917C740.817 133.206 739.114 131.48 739.114 129.351C739.114 127.222 740.817 125.496 742.917 125.496Z" fill="#3DE76D"/>
<path d="M635.052 125.496H679.051C681.197 125.496 682.937 127.222 682.937 129.351C682.937 131.48 681.197 133.206 679.051 133.206H635.052C632.906 133.206 631.166 131.48 631.166 129.351C631.166 127.222 632.906 125.496 635.052 125.496Z" fill="#3DE76D"/>
<path d="M779.499 144.221H786.85C789.078 144.221 790.885 145.947 790.885 148.077C790.885 150.206 789.078 151.932 786.85 151.932H779.499C777.27 151.932 775.464 150.206 775.464 148.077C775.464 145.947 777.27 144.221 779.499 144.221Z" fill="#3DE76D"/>
<path d="M699.089 144.221H706.44C708.668 144.221 710.475 145.947 710.475 148.077C710.475 150.206 708.668 151.932 706.44 151.932H699.089C696.86 151.932 695.054 150.206 695.054 148.077C695.054 145.947 696.86 144.221 699.089 144.221Z" fill="#3DE76D"/>
<path d="M675.957 144.221H683.308C685.536 144.221 687.343 145.947 687.343 148.077C687.343 150.206 685.536 151.932 683.308 151.932H675.957C673.728 151.932 671.922 150.206 671.922 148.077C671.922 145.947 673.728 144.221 675.957 144.221Z" fill="#3DE76D"/>
<path d="M720.97 143.12H764.969C767.115 143.12 768.855 144.846 768.855 146.975C768.855 149.104 767.115 150.83 764.969 150.83H720.97C718.824 150.83 717.084 149.104 717.084 146.975C717.084 144.846 718.824 143.12 720.97 143.12Z" fill="#3DE76D"/>
<path d="M763.79 213.617H770.616C772.685 213.617 774.363 215.343 774.363 217.472C774.363 219.601 772.685 221.327 770.616 221.327H763.79C761.721 221.327 760.043 219.601 760.043 217.472C760.043 215.343 761.721 213.617 763.79 213.617Z" fill="#3DE76D"/>
<path d="M740.658 213.617H747.484C749.553 213.617 751.231 215.343 751.231 217.472C751.231 219.601 749.553 221.327 747.484 221.327H740.658C738.589 221.327 736.911 219.601 736.911 217.472C736.911 215.343 738.589 213.617 740.658 213.617Z" fill="#3DE76D"/>
<path d="M678.011 213.617H722.01C724.156 213.617 725.896 215.343 725.896 217.472C725.896 219.601 724.156 221.327 722.01 221.327H678.011C675.865 221.327 674.125 219.601 674.125 217.472C674.125 215.343 675.865 213.617 678.011 213.617Z" fill="#3DE76D"/>
<path d="M844.2 213.617H851.026C853.095 213.617 854.773 215.343 854.773 217.472C854.773 219.601 853.095 221.327 851.026 221.327H844.2C842.131 221.327 840.453 219.601 840.453 217.472C840.453 215.343 842.131 213.617 844.2 213.617Z" fill="#3DE76D"/>
<path d="M784.858 213.617H828.856C831.003 213.617 832.743 215.343 832.743 217.472C832.743 219.601 831.003 221.327 828.856 221.327H784.858C782.711 221.327 780.971 219.601 780.971 217.472C780.971 215.343 782.711 213.617 784.858 213.617Z" fill="#3DE76D"/>
<path d="M822.458 195.992H829.809C832.037 195.992 833.844 197.719 833.844 199.848C833.844 201.977 832.037 203.703 829.809 203.703H822.458C820.23 203.703 818.423 201.977 818.423 199.848C818.423 197.719 820.23 195.992 822.458 195.992Z" fill="#3DE76D"/>
<path d="M742.048 195.992H749.399C751.627 195.992 753.434 197.719 753.434 199.848C753.434 201.977 751.627 203.703 749.399 203.703H742.048C739.819 203.703 738.013 201.977 738.013 199.848C738.013 197.719 739.819 195.992 742.048 195.992Z" fill="#3DE76D"/>
<path d="M718.916 195.992H726.267C728.495 195.992 730.302 197.719 730.302 199.848C730.302 201.977 728.495 203.703 726.267 203.703H718.916C716.687 203.703 714.881 201.977 714.881 199.848C714.881 197.719 716.687 195.992 718.916 195.992Z" fill="#3DE76D"/>
<path d="M763.929 195.992H807.928C810.074 195.992 811.814 197.719 811.814 199.848C811.814 201.977 810.074 203.703 807.928 203.703H763.929C761.783 203.703 760.043 201.977 760.043 199.848C760.043 197.719 761.783 195.992 763.929 195.992Z" fill="#3DE76D"/>
<path d="M801.241 178.368H808.067C810.136 178.368 811.814 180.094 811.814 182.224C811.814 184.353 810.136 186.079 808.067 186.079H801.241C799.172 186.079 797.494 184.353 797.494 182.224C797.494 180.094 799.172 178.368 801.241 178.368Z" fill="#3DE76D"/>
<path d="M720.831 178.368H727.657C729.726 178.368 731.403 180.094 731.403 182.224C731.403 184.353 729.726 186.079 727.657 186.079H720.831C718.761 186.079 717.084 184.353 717.084 182.224C717.084 180.094 718.761 178.368 720.831 178.368Z" fill="#3DE76D"/>
<path d="M697.699 178.368H704.525C706.594 178.368 708.272 180.094 708.272 182.224C708.272 184.353 706.594 186.079 704.525 186.079H697.699C695.63 186.079 693.952 184.353 693.952 182.224C693.952 180.094 695.63 178.368 697.699 178.368Z" fill="#3DE76D"/>
<path d="M742.917 179.47H785.98C788.081 179.47 789.784 181.196 789.784 183.325C789.784 185.454 788.081 187.18 785.98 187.18H742.917C740.817 187.18 739.114 185.454 739.114 183.325C739.114 181.196 740.817 179.47 742.917 179.47Z" fill="#3DE76D"/>
<path d="M779.499 160.744H786.85C789.078 160.744 790.885 162.47 790.885 164.599C790.885 166.729 789.078 168.455 786.85 168.455H779.499C777.27 168.455 775.464 166.729 775.464 164.599C775.464 162.47 777.27 160.744 779.499 160.744Z" fill="#3DE76D"/>
<path d="M699.089 160.744H706.44C708.668 160.744 710.475 162.47 710.475 164.599C710.475 166.729 708.668 168.455 706.44 168.455H699.089C696.86 168.455 695.054 166.729 695.054 164.599C695.054 162.47 696.86 160.744 699.089 160.744Z" fill="#3DE76D"/>
<path d="M675.957 160.744H683.308C685.536 160.744 687.343 162.47 687.343 164.599C687.343 166.729 685.536 168.455 683.308 168.455H675.957C673.728 168.455 671.922 166.729 671.922 164.599C671.922 162.47 673.728 160.744 675.957 160.744Z" fill="#3DE76D"/>
<path d="M720.97 161.846H764.969C767.115 161.846 768.855 163.572 768.855 165.701C768.855 167.83 767.115 169.556 764.969 169.556H720.97C718.824 169.556 717.084 167.83 717.084 165.701C717.084 163.572 718.824 161.846 720.97 161.846Z" fill="#3DE76D"/>
<path d="M996.394 448.925V384.195H869.11C941.844 384.195 984.272 427.348 996.394 448.925Z" fill="#2D2D2D"/>
</svg>
